<svg xmlns="http://www.w3.org/2000/svg" xmlns:xlink="http://www.w3.org/1999/xlink" viewBox="0 0 841.9 643.5"><defs><path id="a" d="M0 0h841.9v643.5H0z"/></defs><clipPath id="b"><use xlink:href="#a" overflow="visible"/></clipPath><g clip-path="url(#b)" fill-opacity=".1" fill="#fff"><path d="M176.9 499.3v.2l-14 36c-.1.2-.2.3-.4.3l-84.8-2.4c-.2 0-.4-.2-.4-.4s.1-.4.3-.5l98.8-33.6c.2-.1.3 0 .5.1v.3zm-14.7 35.6l13.5-34.9-95.6 32.6 82.1 2.3z"/><path d="M142.4 497.9c0 .2-.1.3-.2.4l-62.9 35.1c-.1.1-.3.1-.4 0-.1-.1-.2-.2-.2-.3l-7.5-92.6c0-.2.1-.3.2-.4.2-.1.3-.1.5 0l70.4 57.5c0 .1.1.2.1.3zm-62.9 34.4l61.7-34.5-69.1-56.4 7.4 90.9zm152.4 18.4s0 .1 0 0c0 .3-.2.4-.4.4l-38.3 5.3c-.1 0-.2 0-.3-.1l-33.5-24.9c-.2-.1-.2-.3-.1-.5s.2-.3.4-.3l41.7 3.4c.1 0 .1 0 .2.1l30.2 16.3s.1.2.1.3zm-38.7 4.8l36.8-5.1-28.9-15.6-40.1-3.2 32.2 23.9z"/><path d="M222.3 496.6c0 .1 0 .1-.1.2l-20.6 37.8c-.1.1-.2.2-.4.2-.1 0-.3-.1-.4-.2L176 499.5c-.1-.1-.1-.3 0-.4.1-.1.2-.2.4-.2l45.4-2.8c.2 0 .3.1.4.2.1.1.1.2.1.3zm-21.1 37l19.9-36.6-43.9 2.7 24 33.9zm55.1 32.9c0 .1-.3.2-.4.3l-42.8 38.8c-.1.1-.3.1-.4.1-.1 0-.3-.1-.3-.3l-8.4-21.1-13.9 17.8c-.1.1-.3.2-.4.2-.2 0-.3-.1-.3-.3L175 567.4l-7.2 4.4L172 599c0 .2-.1.3-.2.4-.1.1-.3.1-.5 0l-22.6-16.2-30.1 18.1c-.1.1-.2.1-.3 0-.1 0-.2-.1-.3-.2l-39.3-68c-.1-.2-.1-.4.1-.5.2-.1.4-.2.5 0l69.4 49.6 18.2-10.9-5.8-37.8c0-.2.1-.4.3-.5.2-.1.4 0 .5.3l13.5 32.8 17.5-10.5c.1-.1.2-.1.4 0 .1 0 .2.1.3.2l10.7 26.9 27.4-35.1c.1-.1.2-.1.3-.2.1 0 .2 0 .3.1l23.7 18.7c0 .1.3.2.3.3zm-43.4 38.1l41.8-38-22.7-18.2-27.4 35.2 8.3 21zm-23-3.5l13.7-17.6-10.7-26.9-17.1 10.3 14.1 34.2zm-22.2-30.3l7-4.2-12.2-29.6 5.2 33.8zm-18.2 12l21.5 15.4-4-25.9-17.5 10.5zm-31 17.6l29.4-17.7-67.4-48.2 38 65.9z"/><path d="M345.9 545.9c0 .1 0 .2-.1.2-.1.1-.2.2-.4.2l-113.5 1.9c-.2 0-.4-.2-.4-.4l-7.4-51c0-.1 0-.3.1-.4.1-.1.2-.1.4-.1l105.4 12c.2 0 .3.1.4.3l15.6 37.1c-.1.1-.1.2-.1.2zm-113.6 1.5l112.5-1.9-15.2-36.3L225 497.3l7.3 50.1z"/><path d="M425 561.3c0 .1 0 .2-.1.3l-56.3 66.1c-.1.1-.3.2-.5.1s-.3-.2-.3-.4l-4.6-74.1-10.1 59.8c0 .1-.1.2-.2.3-.1.1-.3.1-.4 0l-97.3-46.5c-.2-.1-.3-.3-.2-.4 0-.2.2-.3.3-.4l89.9-20.6 66-94.5c.1-.1.3-.2.5-.2s.3.2.3.4l13 110.1c0-.1 0-.1 0 0zm-56.4 65l55.5-65.2-12.8-108.6-65.4 93.5 6.8 63.8 10.3-60.4c0-.2.2-.4.5-.4.2 0 .4.2.4.4l4.7 76.9zm-111.9-59.6l95.4 45.6-7.1-65.8-88.3 20.2zm-79.8-67.4c0 .1 0 .2-.1.3-.1.1-.2.1-.3.1l-34.5-1.4c-.1 0-.2-.1-.3-.2-.1-.1-.1-.2-.1-.3l20.3-110.1c0-.2.2-.4.4-.4s.4.2.4.4l14.2 111.6zm-34.4-1.8l33.5 1.4-13.8-108.3-19.7 106.9zm190-97c0 .1-.1.2-.1.3l-107.6 96.3c-.1.1-.3.1-.4.1-.1 0-.3-.2-.3-.3l-22.8-115c0-.1 0-.3.1-.4.1-.1.2-.2.4-.1l130.3 18.7c.2 0 .3.1.4.3v.1zM224.8 496l106.3-95.2-128.8-18.5L224.8 496z"/><path d="M426.9 563.2c0 .1 0 .2-.1.3-.1.1-.3.2-.5.2l-63-15.6.2-.8 62 15.3-93.9-161.8.7-.4 94.4 162.7c.2-.1.2 0 .2.1zm224.7-25.7v100.9c0 .2-.3.3-.4.4-.2.1-.4 0-.5-.1l-83.9-71.6-50.4-47.1.6-.6 50.1 47 83.6-29.2c.1 0 .4 0 .6.1 0 0 .3.1.3.2zm-.9 99.9v-99.3L568.1 567l82.6 70.4z"/><path d="M653.2 537.1v.2c-.1.2-.3.3-.4.2L518 519.6c-.1 0-.2-.1-.3-.2-.1-.1-.1-.3 0-.4l36.4-91 .3-.3c.1 0 .3 0 .4.1l98.4 108.9c-.1.2 0 .3 0 .4zm-134.6-18.2l133.1 17.7L554.5 429l-35.9 89.9z"/><path d="M812.2 546.1c0 .3-.2.4-.4.4L708.4 566h-.3l-55.6-28.4c-.1-.1-.2-.2-.2-.4 0-.1.1-.3.2-.4l62.9-45.4c.1-.1.3-.1.5 0l96.1 54.3c.2.1.2.2.2.4zm-103.8 19l102.2-19.2-94.9-53.6-62.1 44.8 54.8 28z"/><path d="M716.1 491.8l-7.3 73.8c0 .1 0 .2-.1.2l-54.3 60.4-.6-.6 54.2-60.3 7.3-73.6.8.1z"/><path d="M815.9 608.7c0 .1-.1.2-.2.3-.1.1-.3.1-.4.1l-102.6-41.3 88.4 55.2-.5.7-92.6-57.8c-.2-.1-.3-.4-.2-.6.1-.2.3-.3.5-.2L814.9 608l-29-122.8.8-.2 29.2 123.7c0-.1 0-.1 0 0zm-298.7-89.1h-.2.2c0-.1 0 0 0 0h-.2.2c-.1-.1 0 0 0 0v.1-.1h-.2l.1.1-37.1 97c-.1.1-.1.3-.3.3-.1 0-.3 0-.4-.1l-55.1-51.5c-.1-.1-.2-.3-.1-.5l38.4-97.3-51.1-15.9c-.1 0-.3-.2-.3-.3 0-.1 0-.3.1-.4l62.3-64.7c.1-.1.3-.2.4-.1.1 0 .3.1.3.3l42.9 133c.1 0 .1 0 .1.1h-.2c0-.1.2-.1.2 0zm-91.8 44.6l90.7-44.7-52.8-51.3-37.9 96zm54.1 51.6l36.5-95.4-90.7 44.7 54.2 50.7zm-15.9-148.6l52.3 50.9-41.8-129.5-10.5 78.6zm-.9-.4l10.5-78.9-60.9 63.2 50.4 15.7zm8.6-78.6l-64.7 4.6-74.1 8.1-2.1 107.9c0 .2-.1.3-.3.4l-98 39-.3-.8 97.7-38.9 2.2-108c0-.2.2-.4.4-.4l74.5-8.1 64.7-4.6v.8zm-307.4-216c0 .1 0 .1-.1.2l-46.7 85c-.1.1-.2.2-.4.2s-.3-.1-.4-.2l-43.1-92.2c-.1-.1-.1-.3 0-.4.1-.1.2-.2.4-.2l89.8 7.2c.1 0 .3.1.3.2l.2.2zm-47.2 84.1l46-83.7-88.4-7.1 42.4 90.8zm60.8 77.6v.2c-.1.1-.2.2-.4.2l-75.9 2.4c-.1 0-.2 0-.3-.1-.1-.1-.1-.2-.1-.3l1.2-16.8v-.1l18-61.1c0-.2.2-.3.3-.3.2 0 .3 0 .4.2l56.8 75.5v.2zm-75.9 2l74.6-2.4-55.8-74.1-17.7 60.2-1.1 16.3zm19.1 36.3c0 .1 0 .2-.1.3-.1.1-.3.2-.5.2l-56.3-18c-.2-.1-.3-.2-.3-.4s.1-.3.3-.4l34.7-14.4c.2-.1.4 0 .5.2l21.6 32.3c.1.1.1.2.1.2zm-55.4-18l54 17.2-20.7-31-33.3 13.8zm-4.4-1.1v.1l-16.8 63.5c0 .2-.2.3-.4.3s-.4-.1-.4-.2l-22.8-49.1c0-.1-.1-.2 0-.3l22.8-86.2c.1-.2.2-.3.4-.3s.4.1.4.3l16.8 71.9c0-.1 0-.1 0 0zm-17.4 62.2L60 353.1 43.6 283l-22.3 84.4 22.2 47.9z"/><path d="M120.7 372.2v.2l-23.5 56.3-.3.3c-.1 0-.3 0-.4-.1l-19.6-17c-.1-.1-.1-.2-.1-.3 0-.1.1-.2.1-.3L120 372c.2-.1.4-.2.5 0 .2 0 .2.1.2.2zm-24 55.6l22.5-53.9-41.3 37.6 18.8 16.3zm-25.1 18.7c0 .1 0 .2-.1.2l-14.4 24c-.1.2-.3.2-.4.2-.2 0-.3-.2-.4-.3l-13.2-53.9c0-.2 0-.4.2-.5.2-.1.4-.1.5.1l27.5 29.9c.3.1.3.2.3.3zM57 469.3l13.7-22.8L44.5 418 57 469.3z"/><path d="M79.5 533c0 .1 0 .2-.1.3l-27.1 30.9c-.1.1-.3.2-.4.1-.2 0-.3-.1-.3-.3l-22.8-71.9c-.1-.2 0-.4.1-.5L56.4 470c.1-.1.3-.1.4-.1.1 0 .2.1.3.3l22.3 62.6c.1.1.1.2.1.2zm-27.3 30l26.4-30.1-22-61.8-26.8 21L52.2 563z"/><path d="M51.67 564.116l.8-.41 27.528 53.876-.801.41zM254.9 186.6l-8.4 80.3c0 .2-.1.3-.3.4-.1.1-.3 0-.4-.1l-56.1-43-72.8 33.4c-.1.1-.3.1-.4 0l-55.8-29.7-16.6 53.4c0 .2-.2.3-.3.3-.2 0-.3 0-.4-.1l-31.1-37.1c-.1-.2-.1-.4 0-.5l60.1-77.1L5 99.5l.6-.6 67.6 67.6c.2.2.2.4 0 .6L13 244.2l30.4 36.3L60 227.2c0-.1.1-.2.2-.3h.4l56.1 29.8 72.8-33.4 64.7-37.1c.1-.1.3-.1.5 0 .1.1.2.2.2.4zm-9.2 79.4l8.2-78.6-63.4 36.4 55.2 42.2z"/><path d="M92.9 32.7L69.2 73.4v.7l52.5 42.7c.1.1.1.2.2.3 0 .1 0 .2-.1.3l-46.7 51.5c-.1.1-.3.2-.5.1s-.3-.2-.3-.4l-5.9-94.1-2.1-1.7L15.1 96l-.4-.8L66.2 72c.1-.1.3 0 .5.1l1.7 1.4v-.1c0-.1 0-.2.1-.2l24-41.2c.1-.1.2-.2.3-.2.1 0 .2 0 .3.1M75.2 167.6l45.7-50.4-51.5-41.9 5.8 92.3zM416.6 304l-9.6 88.4.3 3.7.1-.1.7.5-.7 1.1 4.6 53.8c0 .1-.1.3-.2.4l-80.5 61.1c-.2.1-.4.1-.6 0-.2-.1-.2-.4-.1-.6l75.8-114.9-.4-4.9 9.5-87.6-43 27.3-40.4 67.5c-.1.1-.3.2-.4.2-.2 0-.3-.1-.4-.3l-32.9-103.1-67.5 59.2 98 39.9-.3.8-98.7-40.2-.3-.3c0-.2 0-.3.1-.4l68.5-60.1c.1-.1.3-.1.4-.1.1 0 .3.1.3.3L332 398.3l40-66.7c0-.1.1-.1.1-.1l43.8-27.8c.1-.1.3-.1.5 0 .1 0 .2.1.2.3zm-83.7 206.5l78.3-59.4-4.5-52.4-73.8 111.8z"/><path d="M330.3 508.8v.1c0 .2-.2.3-.3.3l-125.8 25.2c-.2 0-.4-.1-.5-.3l-29.1-99.3-30 57.5c-.1.1-.2.2-.3.2-.1 0-.3-.1-.4-.2l-47.4-63.5c-.1-.1-.1-.3-.1-.4l23.5-56.3c0-.1.1-.1.2-.2l3.3-2.2-3.3-.5.1-.9 4.2.7 52.3-35.3 12.7-110c0-.2.2-.4.4-.4s.4.1.5.3l22.9 74.7 32.7-31.8c.1-.1.3-.2.5-.1l52.7 28.7c.2.1.3.3.2.5L250 429l80.2 79.5c.1.1.1.2.1.3zm-125.8 24.6L329 508.5l-79.4-78.6-24.7 67.1c-.1.2-.2.3-.4.3s-.3-.1-.4-.2L180.2 424l-5.1 9.7 29.4 99.7zm44.8-105.1l48.9-132.5-52.1-28.4-32.8 31.8 17.3 56.4c0 .2 0 .3-.1.4l-15.3 14.1c-.2.2-.4.2-.6 0L177 334.5l-51.4 34.7 76.2 12.2c.1 0 .2.1.2.1l47.3 46.8zm-24.9 67.5l24.6-66.6-47.1-46.7-21.2 40.5 43.7 72.8zm-9.5-126.5l14.8-13.7-17.1-55.7-35 34 37.3 35.4zm-37.2-36.5l34.8-33.8-22.5-73.2-12.3 107zm2.5 89.4l20.9-40-76.5-12.3-3.9 2.6-23.3 55.9 46.9 62.7 30.1-57.7-11.4-38.3c-.1-.2 0-.4.2-.5.2-.1.4 0 .5.2l16.5 27.4zm-5.3 10.2l4.9-9.4-15-24.9 10.1 34.3z"/><path d="M215.6 369.8c0 .2-.2.3-.4.4l-51.6 21.6-66.4 37-10.9 64.1 55.7 4.6-.1.9-55.7-4.6-6.7 39.3c0 .2-.1.3-.3.3-.1.1-.3 0-.4-.1l-52.2-44.6c-.1-.1-.2-.3-.1-.5s.2-.3.4-.3l58.6 4.8 10.9-64.4c0-.1.1-.2.2-.3l66.6-37.1 50.4-21.1L102.2 339l.2-.8 112.7 31.1c.2.2.5.3.5.5zM78.8 532.2l6.5-38.5-57.1-4.7 50.6 43.2z"/><path d="M161.8 533.8l-80.7 87.9c-.1.1-.3.2-.5.1s-.3-.2-.3-.4L78.7 533h.9l1.7 87.3 80-87.1.5.6zM310 616.5l-.8.2-39-165-197.8-8.4c-.1 0-.2-.1-.3-.2-.1-.1-.1-.2-.1-.3l4.8-31.4c0-.2.2-.3.3-.4l86.2-20.1.2.8-86 20.1-4.7 30.6 197.6 8.4c.2 0 .4.1.4.3L310 616.5zM163.059 172.368l.801-.41 26.345 51.56-.802.41z"/><circle cx="408.2" cy="392.6" r="2.6"/><circle cx="221.4" cy="498" r="4.3"/><circle cx="346.9" cy="545.6" r="5.4"/><circle cx="71.9" cy="443.1" r="5.4"/><circle cx="202.2" cy="534.1" r="5.4"/><circle cx="231" cy="548.5" r="5.4"/><circle cx="161" cy="532.2" r="5.4"/><circle cx="77.7" cy="410.5" r="5.4"/><circle cx="43.2" cy="417.2" r="5.4"/><circle cx="52.8" cy="565.7" r="5.4"/><circle cx="121.7" cy="371.5" r="4.3"/><circle cx="177.3" cy="332.9" r="2.9"/><ellipse transform="rotate(-75.244 78.1 532.566)" cx="78.1" cy="532.6" rx="5.4" ry="5.4"/><ellipse transform="rotate(-75.249 244.897 514.873)" cx="244.9" cy="514.9" rx=".6" ry=".6"/><ellipse transform="rotate(-75.256 56.731 469.456)" cx="56.7" cy="469.5" rx="1.7" ry="1.7"/><ellipse transform="rotate(-75.275 162.612 388.809)" cx="162.6" cy="388.8" rx="1.3" ry="1.3"/><ellipse transform="rotate(-75.238 255.559 567.044)" cx="255.6" cy="567.1" rx="1.3" ry="1.3"/><ellipse transform="rotate(-75.275 193.272 554.568)" cx="193.3" cy="554.6" rx="1.3" ry="1.3"/><ellipse transform="rotate(-75.275 332.208 400.308)" cx="332.2" cy="400.3" rx="1.3" ry="1.3"/><ellipse transform="rotate(-75.256 97.845 429.304)" cx="97.9" cy="429.3" rx="3.2" ry="3.2"/><ellipse transform="rotate(-75.238 143.05 494.705)" cx="143" cy="494.7" rx="3.2" ry="3.2"/><ellipse transform="rotate(-75.238 330.839 509.064)" cx="330.8" cy="509.1" rx="3.2" ry="3.2"/><ellipse transform="rotate(-75.238 364.374 548.35)" cx="364.4" cy="548.4" rx="3.2" ry="3.2"/><ellipse transform="rotate(-75.238 177.539 498.532)" cx="177.5" cy="498.5" rx="3.2" ry="3.2"/><ellipse transform="rotate(-75.256 202.013 382.521)" cx="202" cy="382.5" rx="2.1" ry="2.1"/><circle cx="518.4" cy="518.1" r="4.3"/><circle cx="425.5" cy="562.8" r="5.4"/><circle cx="554.9" cy="428.1" r="4.3"/><circle cx="472.4" cy="387.5" r="2.9"/><ellipse transform="rotate(-75.275 411.735 450.132)" cx="411.8" cy="450.2" rx="1.3" ry="1.3"/><ellipse transform="rotate(-75.244 567.966 567.07)" cx="567.9" cy="567.1" rx="1.3" ry="1.3"/><ellipse transform="rotate(-75.256 463.574 467.792)" cx="463.6" cy="467.8" rx="2.1" ry="2.1"/><circle cx="163.3" cy="170.3" r="2.6"/><circle cx="100.7" cy="338" r="5.4"/><ellipse transform="rotate(-75.249 64.194 354.124)" cx="64.2" cy="354.1" rx="3.2" ry="3.2"/><ellipse transform="rotate(-75.251 254.866 186.414)" cx="254.9" cy="186.4" rx="3.2" ry="3.2"/><ellipse transform="rotate(-75.249 103.482 320.586)" cx="103.5" cy="320.6" rx="3.2" ry="3.2"/><circle cx="73.3" cy="166.5" r="4.3"/><circle cx="118" cy="259.5" r="5.4"/><ellipse transform="rotate(-75.256 43.6 281.803)" cx="43.6" cy="281.8" rx="1.3" ry="1.3"/><ellipse transform="rotate(-75.262 61.256 229.973)" cx="61.3" cy="230" rx="2.1" ry="2.1"/><circle cx="408.2" cy="392.6" r="2.6"/><circle cx="221.4" cy="498" r="4.3"/><circle cx="346.9" cy="545.6" r="5.4"/><circle cx="71.9" cy="443.1" r="5.4"/><circle cx="202.2" cy="534.1" r="5.4"/><circle cx="167.6" cy="574" r="5.4"/><circle cx="231" cy="548.5" r="5.4"/><circle cx="161" cy="532.2" r="5.4"/><circle cx="77.7" cy="410.5" r="5.4"/><circle cx="43.2" cy="417.2" r="5.4"/><circle cx="52.8" cy="565.7" r="5.4"/><circle cx="121.7" cy="371.5" r="4.3"/><circle cx="177.3" cy="332.9" r="2.9"/><ellipse transform="rotate(-75.244 78.1 532.566)" cx="78.1" cy="532.6" rx="5.4" ry="5.4"/><ellipse transform="rotate(-75.249 244.897 514.873)" cx="244.9" cy="514.9" rx=".6" ry=".6"/><ellipse transform="rotate(-75.256 56.731 469.456)" cx="56.7" cy="469.5" rx="1.7" ry="1.7"/><ellipse transform="rotate(-75.275 162.612 388.809)" cx="162.6" cy="388.8" rx="1.3" ry="1.3"/><ellipse transform="rotate(-75.238 255.559 567.044)" cx="255.6" cy="567.1" rx="1.3" ry="1.3"/><ellipse transform="rotate(-75.275 193.272 554.568)" cx="193.3" cy="554.6" rx="1.3" ry="1.3"/><ellipse transform="rotate(-75.275 332.208 400.308)" cx="332.2" cy="400.3" rx="1.3" ry="1.3"/><ellipse transform="rotate(-75.256 97.845 429.304)" cx="97.9" cy="429.3" rx="3.2" ry="3.2"/><ellipse transform="rotate(-75.238 143.05 494.705)" cx="143" cy="494.7" rx="3.2" ry="3.2"/><ellipse transform="rotate(-75.238 330.839 509.064)" cx="330.8" cy="509.1" rx="3.2" ry="3.2"/><ellipse transform="rotate(-75.238 364.374 548.35)" cx="364.4" cy="548.4" rx="3.2" ry="3.2"/><ellipse transform="rotate(-75.238 177.539 498.532)" cx="177.5" cy="498.5" rx="3.2" ry="3.2"/><ellipse transform="rotate(-75.256 202.013 382.521)" cx="202" cy="382.5" rx="2.1" ry="2.1"/><ellipse transform="rotate(-34.888 217.169 369.863)" cx="217.2" cy="369.9" rx="4.3" ry="4.3"/><ellipse transform="rotate(-34.888 331.393 399.381)" cx="331.4" cy="399.4" rx="4.3" ry="4.3"/><ellipse transform="rotate(-34.885 161.54 390.309)" cx="161.5" cy="390.3" rx="2.9" ry="2.9"/><ellipse transform="rotate(-20.149 215.783 370.307)" cx="215.8" cy="370.3" rx="1.3" ry="1.3"/><ellipse transform="rotate(-20.128 189.63 223.863)" cx="189.7" cy="223.9" rx="1.3" ry="1.3"/><ellipse transform="rotate(-20.128 333.028 400.578)" cx="333" cy="400.6" rx="3.2" ry="3.2"/><ellipse transform="rotate(-20.132 246.982 267.998)" cx="247" cy="268" rx="3.2" ry="3.2"/><ellipse transform="rotate(-20.138 297.255 295.33)" cx="297.3" cy="295.4" rx="3.2" ry="3.2"/><ellipse transform="rotate(-20.132 373.066 331.077)" cx="373.1" cy="331.1" rx="2.1" ry="2.1"/><ellipse transform="rotate(-34.888 217.169 369.863)" cx="217.2" cy="369.9" rx="4.3" ry="4.3"/><ellipse transform="rotate(-34.888 331.393 399.381)" cx="331.4" cy="399.4" rx="4.3" ry="4.3"/><ellipse transform="rotate(-34.885 161.54 390.309)" cx="161.5" cy="390.3" rx="2.9" ry="2.9"/><ellipse transform="rotate(-20.149 215.783 370.307)" cx="215.8" cy="370.3" rx="1.3" ry="1.3"/><ellipse transform="rotate(-20.128 189.63 223.863)" cx="189.7" cy="223.9" rx="1.3" ry="1.3"/><ellipse transform="rotate(-20.128 333.028 400.578)" cx="333" cy="400.6" rx="3.2" ry="3.2"/><ellipse transform="rotate(-75.275 271.842 453.963)" cx="271.9" cy="454" rx="1.3" ry="1.3"/><ellipse transform="rotate(-75.275 271.842 453.963)" cx="271.9" cy="454" rx="1.3" ry="1.3"/><ellipse transform="rotate(-34.888 271.028 453.043)" cx="271" cy="453" rx="4.3" ry="4.3"/><ellipse transform="rotate(-20.132 272.658 454.215)" cx="272.7" cy="454.2" rx="3.2" ry="3.2"/><ellipse transform="rotate(-34.888 271.028 453.043)" cx="271" cy="453" rx="4.3" ry="4.3"/><ellipse transform="rotate(-20.132 272.658 454.215)" cx="272.7" cy="454.2" rx="3.2" ry="3.2"/><ellipse transform="rotate(-20.132 246.982 267.998)" cx="247" cy="268" rx="3.2" ry="3.2"/><ellipse transform="rotate(-20.138 297.255 295.33)" cx="297.3" cy="295.4" rx="3.2" ry="3.2"/><ellipse transform="rotate(-20.132 373.066 331.077)" cx="373.1" cy="331.1" rx="2.1" ry="2.1"/><ellipse transform="rotate(-20.132 416.405 304.207)" cx="416.4" cy="304.2" rx="4.1" ry="4.1"/><circle cx="518.4" cy="518.1" r="4.3"/><circle cx="652.8" cy="537.2" r="4.3"/><circle cx="567" cy="566.7" r="4.3"/><circle cx="716.1" cy="492.1" r="4.3"/><circle cx="708.3" cy="565.8" r="4.3"/><circle cx="425.5" cy="562.8" r="5.4"/><circle cx="472.4" cy="387.5" r="2.9"/><ellipse transform="rotate(-75.275 411.735 450.132)" cx="411.8" cy="450.2" rx="1.3" ry="1.3"/><ellipse transform="rotate(-75.244 567.966 567.07)" cx="567.9" cy="567.1" rx="1.3" ry="1.3"/><ellipse transform="rotate(-75.256 463.574 467.792)" cx="463.6" cy="467.8" rx="2.1" ry="2.1"/><circle cx="163.3" cy="170.3" r="2.6"/><circle cx="100.7" cy="338" r="5.4"/><ellipse transform="rotate(-75.249 64.194 354.124)" cx="64.2" cy="354.1" rx="3.2" ry="3.2"/><ellipse transform="rotate(-75.251 254.866 186.414)" cx="254.9" cy="186.4" rx="3.2" ry="3.2"/><ellipse transform="rotate(-75.244 189.72 222.84)" cx="189.7" cy="222.8" rx="3.2" ry="3.2"/><ellipse transform="rotate(-75.244 189.72 222.84)" cx="189.7" cy="222.8" rx="3.2" ry="3.2"/><ellipse transform="rotate(-75.249 103.482 320.586)" cx="103.5" cy="320.6" rx="3.2" ry="3.2"/><circle cx="73.3" cy="166.5" r="4.3"/><circle cx="68.1" cy="72.9" r="4.3"/><circle cx="121.8" cy="117.1" r="4.3"/><circle cx="93.2" cy="33" r="2.4"/><circle cx="118" cy="259.5" r="5.4"/><ellipse transform="rotate(-75.256 43.6 281.803)" cx="43.6" cy="281.8" rx="1.3" ry="1.3"/><ellipse transform="rotate(-75.262 61.256 229.973)" cx="61.3" cy="230" rx="2.1" ry="2.1"/></g></svg>