<?xml version="1.0" encoding="utf-8"?>
<!-- Generator: Adobe Illustrator 21.0.0, SVG Export Plug-In . SVG Version: 6.00 Build 0)  -->
<svg version="1.1" id="Layer_1" xmlns="http://www.w3.org/2000/svg" xmlns:xlink="http://www.w3.org/1999/xlink" x="0px" y="0px"
	 viewBox="0 0 841.9 643.5" style="enable-background:new 0 0 841.9 643.5;" xml:space="preserve">
<g>
	<defs>
		<rect id="SVGID_1_" width="841.9" height="643.5"/>
	</defs>
	<clipPath id="SVGID_2_">
		<use xlink:href="#SVGID_1_"  style="overflow:visible;"/>
	</clipPath>
	<g style="clip-path:url(#SVGID_2_);">
		<g>
			<g>
				<g>
					<path style="fill:#ffffff;" fill-opacity="0.1" d="M176.9,499.3c0,0.1,0,0.1,0,0.2l-14,36c-0.1,0.2-0.2,0.3-0.4,0.3l-84.8-2.4
						c-0.2,0-0.4-0.2-0.4-0.4c0-0.2,0.1-0.4,0.3-0.5l98.8-33.6c0.2-0.1,0.3,0,0.5,0.1C176.9,499.1,176.9,499.2,176.9,499.3z
						 M162.2,534.9l13.5-34.9l-95.6,32.6L162.2,534.9z"/>
				</g>
				<g>
					<path style="fill:#ffffff;" fill-opacity="0.1" d="M142.4,497.9C142.4,497.9,142.4,497.9,142.4,497.9c0,0.2-0.1,0.3-0.2,0.4l-62.9,35.1
						c-0.1,0.1-0.3,0.1-0.4,0c-0.1-0.1-0.2-0.2-0.2-0.3l-7.5-92.6c0-0.2,0.1-0.3,0.2-0.4c0.2-0.1,0.3-0.1,0.5,0l70.4,57.5
						C142.3,497.7,142.4,497.8,142.4,497.9z M79.5,532.3l61.7-34.5l-69.1-56.4L79.5,532.3z"/>
				</g>
				<g>
					<path style="fill:#ffffff;" fill-opacity="0.1" d="M231.9,550.7C231.9,550.7,231.9,550.8,231.9,550.7c0,0.3-0.2,0.4-0.4,0.4l-38.3,5.3
						c-0.1,0-0.2,0-0.3-0.1l-33.5-24.9c-0.2-0.1-0.2-0.3-0.1-0.5c0.1-0.2,0.2-0.3,0.4-0.3l41.7,3.4c0.1,0,0.1,0,0.2,0.1l30.2,16.3
						C231.8,550.4,231.9,550.6,231.9,550.7z M193.2,555.5l36.8-5.1l-28.9-15.6l-40.1-3.2L193.2,555.5z"/>
				</g>
				<g>
					<path style="fill:#ffffff;" fill-opacity="0.1" d="M222.3,496.6c0,0.1,0,0.1-0.1,0.2l-20.6,37.8c-0.1,0.1-0.2,0.2-0.4,0.2c-0.1,0-0.3-0.1-0.4-0.2
						l-24.8-35.1c-0.1-0.1-0.1-0.3,0-0.4c0.1-0.1,0.2-0.2,0.4-0.2l45.4-2.8c0.2,0,0.3,0.1,0.4,0.2
						C222.3,496.4,222.3,496.5,222.3,496.6z M201.2,533.6l19.9-36.6l-43.9,2.7L201.2,533.6z"/>
				</g>
				<g>
					<path style="fill:#ffffff;" fill-opacity="0.1" d="M256.3,566.5c0,0.1-0.3,0.2-0.4,0.3l-42.8,38.8c-0.1,0.1-0.3,0.1-0.4,0.1
						c-0.1,0-0.3-0.1-0.3-0.3l-8.4-21.1l-13.9,17.8c-0.1,0.1-0.3,0.2-0.4,0.2c-0.2,0-0.3-0.1-0.3-0.3L175,567.4l-7.2,4.4L172,599
						c0,0.2-0.1,0.3-0.2,0.4c-0.1,0.1-0.3,0.1-0.5,0l-22.6-16.2l-30.1,18.1c-0.1,0.1-0.2,0.1-0.3,0c-0.1,0-0.2-0.1-0.3-0.2l-39.3-68
						c-0.1-0.2-0.1-0.4,0.1-0.5c0.2-0.1,0.4-0.2,0.5,0l69.4,49.6l18.2-10.9l-5.8-37.8c0-0.2,0.1-0.4,0.3-0.5c0.2-0.1,0.4,0,0.5,0.3
						l13.5,32.8l17.5-10.5c0.1-0.1,0.2-0.1,0.4,0c0.1,0,0.2,0.1,0.3,0.2l10.7,26.9l27.4-35.1c0.1-0.1,0.2-0.1,0.3-0.2
						c0.1,0,0.2,0,0.3,0.1l23.7,18.7C256,566.3,256.3,566.4,256.3,566.5C256.3,566.5,256.3,566.5,256.3,566.5z M212.9,604.6l41.8-38
						L232,548.4l-27.4,35.2L212.9,604.6z M189.9,601.1l13.7-17.6l-10.7-26.9l-17.1,10.3L189.9,601.1z M167.7,570.8l7-4.2L162.5,537
						L167.7,570.8z M149.5,582.8l21.5,15.4l-4-25.9L149.5,582.8z M118.5,600.4l29.4-17.7l-67.4-48.2L118.5,600.4z"/>
				</g>
				<g>
					<path style="fill:#ffffff;" fill-opacity="0.1" d="M345.9,545.9c0,0.1,0,0.2-0.1,0.2c-0.1,0.1-0.2,0.2-0.4,0.2l-113.5,1.9c-0.2,0-0.4-0.2-0.4-0.4
						l-7.4-51c0-0.1,0-0.3,0.1-0.4c0.1-0.1,0.2-0.1,0.4-0.1l105.4,12c0.2,0,0.3,0.1,0.4,0.3l15.6,37.1
						C345.9,545.8,345.9,545.9,345.9,545.9z M232.3,547.4l112.5-1.9l-15.2-36.3L225,497.3L232.3,547.4z"/>
				</g>
				<g>
					<path style="fill:#ffffff;" fill-opacity="0.1" d="M425,561.3c0,0.1,0,0.2-0.1,0.3l-56.3,66.1c-0.1,0.1-0.3,0.2-0.5,0.1c-0.2-0.1-0.3-0.2-0.3-0.4
						l-4.6-74.1l-10.1,59.8c0,0.1-0.1,0.2-0.2,0.3c-0.1,0.1-0.3,0.1-0.4,0l-97.3-46.5c-0.2-0.1-0.3-0.3-0.2-0.4
						c0-0.2,0.2-0.3,0.3-0.4l89.9-20.6l66-94.5c0.1-0.1,0.3-0.2,0.5-0.2c0.2,0,0.3,0.2,0.3,0.4L425,561.3
						C425,561.2,425,561.2,425,561.3z M368.6,626.3l55.5-65.2l-12.8-108.6L345.9,546l6.8,63.8l10.3-60.4c0-0.2,0.2-0.4,0.5-0.4
						c0.2,0,0.4,0.2,0.4,0.4L368.6,626.3z M256.7,566.7l95.4,45.6l-7.1-65.8L256.7,566.7z"/>
				</g>
				<g>
					<path style="fill:#ffffff;" fill-opacity="0.1" d="M176.9,499.3c0,0.1,0,0.2-0.1,0.3c-0.1,0.1-0.2,0.1-0.3,0.1l-34.5-1.4c-0.1,0-0.2-0.1-0.3-0.2
						c-0.1-0.1-0.1-0.2-0.1-0.3l20.3-110.1c0-0.2,0.2-0.4,0.4-0.4c0.2,0,0.4,0.2,0.4,0.4L176.9,499.3
						C176.9,499.3,176.9,499.3,176.9,499.3z M142.5,497.5l33.5,1.4l-13.8-108.3L142.5,497.5z"/>
				</g>
				<g>
					<path style="fill:#ffffff;" fill-opacity="0.1" d="M332.5,400.5c0,0.1-0.1,0.2-0.1,0.3l-107.6,96.3c-0.1,0.1-0.3,0.1-0.4,0.1
						c-0.1,0-0.3-0.2-0.3-0.3l-22.8-115c0-0.1,0-0.3,0.1-0.4c0.1-0.1,0.2-0.2,0.4-0.1l130.3,18.7c0.2,0,0.3,0.1,0.4,0.3
						C332.5,400.4,332.5,400.5,332.5,400.5z M224.8,496l106.3-95.2l-128.8-18.5L224.8,496z"/>
				</g>
				<g>
					<path style="fill:#ffffff;" fill-opacity="0.1" d="M426.9,563.2c0,0.1,0,0.2-0.1,0.3c-0.1,0.1-0.3,0.2-0.5,0.2l-63-15.6l0.2-0.8l62,15.3
						l-93.9-161.8l0.7-0.4l94.4,162.7C426.9,563,426.9,563.1,426.9,563.2z"/>
				</g>
				<g>
					<path style="fill:#ffffff;" fill-opacity="0.1" d="M651.6,537.5v100.9c0,0.2-0.3,0.3-0.4,0.4c-0.2,0.1-0.4,0-0.5-0.1l-83.9-71.6c0,0,0,0,0,0
						L516.4,520l0.6-0.6l50.1,47l83.6-29.2c0.1,0,0.4,0,0.6,0.1C651.3,537.3,651.6,537.4,651.6,537.5z M650.7,637.4v-99.3L568.1,567
						L650.7,637.4z"/>
				</g>
				<g>
					<path style="fill:#ffffff;" fill-opacity="0.1" d="M653.2,537.1c0,0.1,0,0.1,0,0.2c-0.1,0.2-0.3,0.3-0.4,0.2l-134.8-17.9c-0.1,0-0.2-0.1-0.3-0.2
						c-0.1-0.1-0.1-0.3,0-0.4l36.4-91c0.1-0.1,0.2-0.2,0.3-0.3c0.1,0,0.3,0,0.4,0.1l98.4,108.9C653.1,536.9,653.2,537,653.2,537.1z
						 M518.6,518.9l133.1,17.7L554.5,429L518.6,518.9z"/>
				</g>
				<g>
					<path style="fill:#ffffff;" fill-opacity="0.1" d="M812.2,546.1C812.2,546.1,812.2,546.1,812.2,546.1c0,0.3-0.2,0.4-0.4,0.4L708.4,566
						c-0.1,0-0.2,0-0.3,0l-55.6-28.4c-0.1-0.1-0.2-0.2-0.2-0.4c0-0.1,0.1-0.3,0.2-0.4l62.9-45.4c0.1-0.1,0.3-0.1,0.5,0l96.1,54.3
						C812.2,545.8,812.2,545.9,812.2,546.1z M708.4,565.1l102.2-19.2l-94.9-53.6l-62.1,44.8L708.4,565.1z"/>
				</g>
				<g>
					<path style="fill:#ffffff;" fill-opacity="0.1" d="M716.1,491.8l-7.3,73.8c0,0.1,0,0.2-0.1,0.2l-54.3,60.4l-0.6-0.6l54.2-60.3l7.3-73.6
						L716.1,491.8z"/>
				</g>
				<g>
					<path style="fill:#ffffff;" fill-opacity="0.1" d="M815.9,608.7c0,0.1-0.1,0.2-0.2,0.3c-0.1,0.1-0.3,0.1-0.4,0.1l-102.6-41.3l88.4,55.2l-0.5,0.7
						l-92.6-57.8c-0.2-0.1-0.3-0.4-0.2-0.6c0.1-0.2,0.3-0.3,0.5-0.2L814.9,608l-29-122.8l0.8-0.2L815.9,608.7
						C815.9,608.6,815.9,608.6,815.9,608.7z"/>
				</g>
				<g>
					<path style="fill:#ffffff;" fill-opacity="0.1" d="M517.2,519.6c0,0-0.2,0-0.2,0L517.2,519.6C517.2,519.5,517.2,519.6,517.2,519.6
						C517.2,519.6,517.2,519.6,517.2,519.6L517.2,519.6C517.2,519.6,517.2,519.6,517.2,519.6L517.2,519.6c0,0-0.2,0-0.2,0
						L517.2,519.6C517.1,519.5,517.2,519.6,517.2,519.6c0,0,0,0.1,0,0.1L517.2,519.6l-0.2,0c0,0,0.1,0.1,0.1,0.1L480,616.7
						c-0.1,0.1-0.1,0.3-0.3,0.3c-0.1,0-0.3,0-0.4-0.1l-55.1-51.5c-0.1-0.1-0.2-0.3-0.1-0.5l38.4-97.3l-51.1-15.9
						c-0.1,0-0.3-0.2-0.3-0.3c0-0.1,0-0.3,0.1-0.4l62.3-64.7c0.1-0.1,0.3-0.2,0.4-0.1c0.1,0,0.3,0.1,0.3,0.3l42.9,133c0,0,0,0,0,0
						l0,0c0,0,0,0,0,0c0,0,0,0,0,0C517.2,519.5,517.2,519.5,517.2,519.6l-0.2,0C517,519.5,517.2,519.5,517.2,519.6z M425.4,564.2
						l90.7-44.7l-52.8-51.3L425.4,564.2z M479.5,615.8l36.5-95.4l-90.7,44.7L479.5,615.8z M463.6,467.2l52.3,50.9l-41.8-129.5
						L463.6,467.2z M462.7,466.8l10.5-78.9l-60.9,63.2L462.7,466.8z"/>
				</g>
				<g>
					<path style="fill:#ffffff;" fill-opacity="0.1" d="M471.3,388.2l-64.7,4.6l-74.1,8.1l-2.1,107.9c0,0.2-0.1,0.3-0.3,0.4l-98,39l-0.3-0.8l97.7-38.9
						l2.2-108c0-0.2,0.2-0.4,0.4-0.4l74.5-8.1l64.7-4.6L471.3,388.2z"/>
				</g>
				<g>
					<path style="fill:#ffffff;" fill-opacity="0.1" d="M163.9,172.2c0,0.1,0,0.1-0.1,0.2l-46.7,85c-0.1,0.1-0.2,0.2-0.4,0.2c-0.2,0-0.3-0.1-0.4-0.2
						l-43.1-92.2c-0.1-0.1-0.1-0.3,0-0.4c0.1-0.1,0.2-0.2,0.4-0.2l89.8,7.2c0.1,0,0.3,0.1,0.3,0.2
						C163.8,172.1,163.9,172.2,163.9,172.2z M116.7,256.3l46-83.7l-88.4-7.1L116.7,256.3z"/>
				</g>
				<g>
					<path style="fill:#ffffff;" fill-opacity="0.1" d="M177.5,333.9c0,0.1,0,0.1,0,0.2c-0.1,0.1-0.2,0.2-0.4,0.2l-75.9,2.4c-0.1,0-0.2,0-0.3-0.1
						c-0.1-0.1-0.1-0.2-0.1-0.3l1.2-16.8c0,0,0-0.1,0-0.1l18-61.1c0-0.2,0.2-0.3,0.3-0.3c0.2,0,0.3,0,0.4,0.2l56.8,75.5
						C177.5,333.7,177.5,333.8,177.5,333.9z M101.6,335.9l74.6-2.4l-55.8-74.1l-17.7,60.2L101.6,335.9z"/>
				</g>
				<g>
					<path style="fill:#ffffff;" fill-opacity="0.1" d="M120.7,372.2c0,0.1,0,0.2-0.1,0.3c-0.1,0.1-0.3,0.2-0.5,0.2l-56.3-18c-0.2-0.1-0.3-0.2-0.3-0.4
						c0-0.2,0.1-0.3,0.3-0.4l34.7-14.4c0.2-0.1,0.4,0,0.5,0.2l21.6,32.3C120.7,372.1,120.7,372.2,120.7,372.2z M65.3,354.2l54,17.2
						l-20.7-31L65.3,354.2z"/>
				</g>
				<g>
					<path style="fill:#ffffff;" fill-opacity="0.1" d="M60.9,353.1c0,0,0,0.1,0,0.1l-16.8,63.5c0,0.2-0.2,0.3-0.4,0.3c-0.2,0-0.4-0.1-0.4-0.2
						l-22.8-49.1c0-0.1-0.1-0.2,0-0.3l22.8-86.2c0.1-0.2,0.2-0.3,0.4-0.3c0.2,0,0.4,0.1,0.4,0.3L60.9,353.1
						C60.9,353,60.9,353,60.9,353.1z M43.5,415.3L60,353.1L43.6,283l-22.3,84.4L43.5,415.3z"/>
				</g>
				<g>
					<path style="fill:#ffffff;" fill-opacity="0.1" d="M120.7,372.2c0,0.1,0,0.1,0,0.2l-23.5,56.3c-0.1,0.1-0.2,0.2-0.3,0.3c-0.1,0-0.3,0-0.4-0.1
						l-19.6-17c-0.1-0.1-0.1-0.2-0.1-0.3c0-0.1,0.1-0.2,0.1-0.3l43.1-39.3c0.2-0.1,0.4-0.2,0.5,0C120.7,372,120.7,372.1,120.7,372.2
						z M96.7,427.8l22.5-53.9l-41.3,37.6L96.7,427.8z"/>
				</g>
				<g>
					<path style="fill:#ffffff;" fill-opacity="0.1" d="M71.6,446.5c0,0.1,0,0.2-0.1,0.2l-14.4,24c-0.1,0.2-0.3,0.2-0.4,0.2c-0.2,0-0.3-0.2-0.4-0.3
						l-13.2-53.9c0-0.2,0-0.4,0.2-0.5c0.2-0.1,0.4-0.1,0.5,0.1l27.5,29.9C71.6,446.3,71.6,446.4,71.6,446.5z M57,469.3l13.7-22.8
						l-26.2-28.5L57,469.3z"/>
				</g>
				<g>
					<path style="fill:#ffffff;" fill-opacity="0.1" d="M79.5,533c0,0.1,0,0.2-0.1,0.3l-27.1,30.9c-0.1,0.1-0.3,0.2-0.4,0.1c-0.2,0-0.3-0.1-0.3-0.3
						l-22.8-71.9c-0.1-0.2,0-0.4,0.1-0.5l27.5-21.6c0.1-0.1,0.3-0.1,0.4-0.1c0.1,0,0.2,0.1,0.3,0.3l22.3,62.6
						C79.5,532.9,79.5,533,79.5,533z M52.2,563l26.4-30.1l-22-61.8l-26.8,21L52.2,563z"/>
				</g>
				<g>

						<rect x="65.4" y="560.6" transform="matrix(0.8905 -0.455 0.455 0.8905 -261.6425 94.6585)" style="fill:#ffffff;" fill-opacity="0.1" width="0.9" height="60.5"/>
				</g>
				<g>
					<path style="fill:#ffffff;" fill-opacity="0.1" d="M254.9,186.6C254.9,186.6,254.9,186.6,254.9,186.6l-8.4,80.3c0,0.2-0.1,0.3-0.3,0.4
						c-0.1,0.1-0.3,0-0.4-0.1l-56.1-43l-72.8,33.4c-0.1,0.1-0.3,0.1-0.4,0l-55.8-29.7l-16.6,53.4c0,0.2-0.2,0.3-0.3,0.3
						c-0.2,0-0.3,0-0.4-0.1l-31.1-37.1c-0.1-0.2-0.1-0.4,0-0.5l60.1-77.1L5,99.5l0.6-0.6l67.6,67.6c0.2,0.2,0.2,0.4,0,0.6
						l-60.2,77.1l30.4,36.3L60,227.2c0-0.1,0.1-0.2,0.2-0.3c0.1,0,0.3,0,0.4,0l56.1,29.8l72.8-33.4l64.7-37.1c0.1-0.1,0.3-0.1,0.5,0
						C254.8,186.3,254.9,186.4,254.9,186.6z M245.7,266l8.2-78.6l-63.4,36.4L245.7,266z"/>
				</g>
				<g>
					<path style="fill:#ffffff;" fill-opacity="0.1" d="M92.9,32.7L69.2,73.4l0,0.7l52.5,42.7c0.1,0.1,0.1,0.2,0.2,0.3c0,0.1,0,0.2-0.1,0.3l-46.7,51.5
						c-0.1,0.1-0.3,0.2-0.5,0.1c-0.2-0.1-0.3-0.2-0.3-0.4l-5.9-94.1l-2.1-1.7L15.1,96l-0.4-0.8l51.5-23.2c0.1-0.1,0.3,0,0.5,0.1
						l1.7,1.4l0-0.1c0-0.1,0-0.2,0.1-0.2l24-41.2c0.1-0.1,0.2-0.2,0.3-0.2c0.1,0,0.2,0,0.3,0.1 M75.2,167.6l45.7-50.4L69.4,75.3
						L75.2,167.6z"/>
				</g>
				<g>
					<path style="fill:#ffffff;" fill-opacity="0.1" d="M416.6,304C416.6,304,416.6,304,416.6,304l-9.6,88.4l0.3,3.7l0.1-0.1l0.7,0.5l-0.7,1.1l4.6,53.8
						c0,0.1-0.1,0.3-0.2,0.4l-80.5,61.1c-0.2,0.1-0.4,0.1-0.6,0c-0.2-0.1-0.2-0.4-0.1-0.6l75.8-114.9l-0.4-4.9l9.5-87.6l-43,27.3
						l-40.4,67.5c-0.1,0.1-0.3,0.2-0.4,0.2c-0.2,0-0.3-0.1-0.4-0.3l-32.9-103.1l-67.5,59.2l98,39.9l-0.3,0.8l-98.7-40.2
						c-0.1-0.1-0.2-0.2-0.3-0.3c0-0.2,0-0.3,0.1-0.4l68.5-60.1c0.1-0.1,0.3-0.1,0.4-0.1c0.1,0,0.3,0.1,0.3,0.3L332,398.3l40-66.7
						c0-0.1,0.1-0.1,0.1-0.1l43.8-27.8c0.1-0.1,0.3-0.1,0.5,0C416.5,303.7,416.6,303.8,416.6,304z M332.9,510.5l78.3-59.4l-4.5-52.4
						L332.9,510.5z"/>
				</g>
				<g>
					<path style="fill:#ffffff;" fill-opacity="0.1" d="M330.3,508.8c0,0,0,0.1,0,0.1c0,0.2-0.2,0.3-0.3,0.3l-125.8,25.2c-0.2,0-0.4-0.1-0.5-0.3
						l-29.1-99.3l-30,57.5c-0.1,0.1-0.2,0.2-0.3,0.2c-0.1,0-0.3-0.1-0.4-0.2l-47.4-63.5c-0.1-0.1-0.1-0.3-0.1-0.4l23.5-56.3
						c0-0.1,0.1-0.1,0.2-0.2l3.3-2.2l-3.3-0.5l0.1-0.9l4.2,0.7l52.3-35.3l12.7-110c0-0.2,0.2-0.4,0.4-0.4c0.2,0,0.4,0.1,0.5,0.3
						l22.9,74.7l32.7-31.8c0.1-0.1,0.3-0.2,0.5-0.1l52.7,28.7c0.2,0.1,0.3,0.3,0.2,0.5L250,429l80.2,79.5
						C330.3,508.6,330.3,508.7,330.3,508.8z M204.5,533.4L329,508.5l-79.4-78.6L224.9,497c-0.1,0.2-0.2,0.3-0.4,0.3
						c-0.2,0-0.3-0.1-0.4-0.2l-43.9-73.1l-5.1,9.7L204.5,533.4z M249.3,428.3l48.9-132.5l-52.1-28.4l-32.8,31.8l17.3,56.4
						c0,0.2,0,0.3-0.1,0.4l-15.3,14.1c-0.2,0.2-0.4,0.2-0.6,0L177,334.5l-51.4,34.7l76.2,12.2c0.1,0,0.2,0.1,0.2,0.1L249.3,428.3z
						 M224.4,495.8l24.6-66.6l-47.1-46.7L180.7,423L224.4,495.8z M214.9,369.3l14.8-13.7l-17.1-55.7l-35,34L214.9,369.3z
						 M177.7,332.8l34.8-33.8L190,225.8L177.7,332.8z M180.2,422.2l20.9-40l-76.5-12.3l-3.9,2.6l-23.3,55.9l46.9,62.7l30.1-57.7
						L163,395.1c-0.1-0.2,0-0.4,0.2-0.5c0.2-0.1,0.4,0,0.5,0.2L180.2,422.2z M174.9,432.4l4.9-9.4l-15-24.9L174.9,432.4z"/>
				</g>
				<g>
					<path style="fill:#ffffff;" fill-opacity="0.1" d="M215.6,369.8c0,0.2-0.2,0.3-0.4,0.4l-51.6,21.6l-66.4,37l-10.9,64.1l55.7,4.6l-0.1,0.9
						l-55.7-4.6l-6.7,39.3c0,0.2-0.1,0.3-0.3,0.3c-0.1,0.1-0.3,0-0.4-0.1l-52.2-44.6c-0.1-0.1-0.2-0.3-0.1-0.5
						c0.1-0.2,0.2-0.3,0.4-0.3l58.6,4.8l10.9-64.4c0-0.1,0.1-0.2,0.2-0.3l66.6-37.1l50.4-21.1l-111.4-30.8l0.2-0.8l112.7,31.1
						C215.3,369.5,215.6,369.6,215.6,369.8C215.6,369.8,215.6,369.8,215.6,369.8z M78.8,532.2l6.5-38.5L28.2,489L78.8,532.2z"/>
				</g>
				<g>
					<path style="fill:#ffffff;" fill-opacity="0.1" d="M161.8,533.8l-80.7,87.9c-0.1,0.1-0.3,0.2-0.5,0.1c-0.2-0.1-0.3-0.2-0.3-0.4L78.7,533l0.9,0
						l1.7,87.3l80-87.1L161.8,533.8z"/>
				</g>
				<g>
					<path style="fill:#ffffff;" fill-opacity="0.1" d="M310,616.5l-0.8,0.2l-39-165l-197.8-8.4c-0.1,0-0.2-0.1-0.3-0.2c-0.1-0.1-0.1-0.2-0.1-0.3
						l4.8-31.4c0-0.2,0.2-0.3,0.3-0.4l86.2-20.1l0.2,0.8l-86,20.1l-4.7,30.6l197.6,8.4c0.2,0,0.4,0.1,0.4,0.3L310,616.5z"/>
				</g>
				<g>

						<rect x="176.2" y="169" transform="matrix(0.8905 -0.455 0.455 0.8905 -70.7423 102.044)" style="fill:#ffffff;" fill-opacity="0.1" width="0.9" height="57.9"/>
				</g>
			</g>
			<g>
				<circle style="fill:#ffffff;" fill-opacity="0.1" cx="408.2" cy="392.6" r="2.6"/>
			</g>
			<g>
				<circle style="fill:#ffffff;" fill-opacity="0.1" cx="221.4" cy="498" r="4.3"/>
			</g>
			<g>
				<circle style="fill:#ffffff;" fill-opacity="0.1" cx="346.9" cy="545.6" r="5.4"/>
			</g>
			<g>
				<circle style="fill:#ffffff;" fill-opacity="0.1" cx="71.9" cy="443.1" r="5.4"/>
			</g>
			<g>
				<circle style="fill:#ffffff;" fill-opacity="0.1" cx="202.2" cy="534.1" r="5.4"/>
			</g>
			<g>
				<circle style="fill:#ffffff;" fill-opacity="0.1" cx="231" cy="548.5" r="5.4"/>
			</g>
			<g>
				<circle style="fill:#ffffff;" fill-opacity="0.1" cx="161" cy="532.2" r="5.4"/>
			</g>
			<g>
				<circle style="fill:#ffffff;" fill-opacity="0.1" cx="77.7" cy="410.5" r="5.4"/>
			</g>
			<g>
				<circle style="fill:#ffffff;" fill-opacity="0.1" cx="43.2" cy="417.2" r="5.4"/>
			</g>
			<g>
				<circle style="fill:#ffffff;" fill-opacity="0.1" cx="52.8" cy="565.7" r="5.4"/>
			</g>
			<g>
				<circle style="fill:#ffffff;" fill-opacity="0.1" cx="121.7" cy="371.5" r="4.3"/>
			</g>
			<g>
				<circle style="fill:#ffffff;" fill-opacity="0.1" cx="177.3" cy="332.9" r="2.9"/>
			</g>
			<g>

					<ellipse transform="matrix(0.2547 -0.967 0.967 0.2547 -456.7831 472.4449)" style="fill:#ffffff;" fill-opacity="0.1" cx="78.1" cy="532.6" rx="5.4" ry="5.4"/>
			</g>
			<g>

					<ellipse transform="matrix(0.2546 -0.967 0.967 0.2546 -315.347 620.5791)" style="fill:#ffffff;" fill-opacity="0.1" cx="244.9" cy="514.9" rx="0.6" ry="0.6"/>
			</g>
			<g>

					<ellipse transform="matrix(0.2545 -0.9671 0.9671 0.2545 -411.7166 404.8568)" style="fill:#ffffff;" fill-opacity="0.1" cx="56.7" cy="469.5" rx="1.7" ry="1.7"/>
			</g>
			<g>

					<ellipse transform="matrix(0.2542 -0.9672 0.9672 0.2542 -254.7719 447.2702)" style="fill:#ffffff;" fill-opacity="0.1" cx="162.6" cy="388.8" rx="1.3" ry="1.3"/>
			</g>
			<g>

					<ellipse transform="matrix(0.2548 -0.967 0.967 0.2548 -357.8889 669.6864)" style="fill:#ffffff;" fill-opacity="0.1" cx="255.6" cy="567.1" rx="1.3" ry="1.3"/>
			</g>
			<g>

					<ellipse transform="matrix(0.2542 -0.9672 0.9672 0.2542 -392.2267 600.5547)" style="fill:#ffffff;" fill-opacity="0.1" cx="193.3" cy="554.6" rx="1.3" ry="1.3"/>
			</g>
			<g>

					<ellipse transform="matrix(0.2542 -0.9672 0.9672 0.2542 -139.4018 619.8807)" style="fill:#ffffff;" fill-opacity="0.1" cx="332.2" cy="400.3" rx="1.3" ry="1.3"/>
			</g>
			<g>

					<ellipse transform="matrix(0.2545 -0.9671 0.9671 0.2545 -342.2342 414.6837)" style="fill:#ffffff;" fill-opacity="0.1" cx="97.9" cy="429.3" rx="3.2" ry="3.2"/>
			</g>
			<g>

					<ellipse transform="matrix(0.2548 -0.967 0.967 0.2548 -371.7783 506.9835)" style="fill:#ffffff;" fill-opacity="0.1" cx="143" cy="494.7" rx="3.2" ry="3.2"/>
			</g>
			<g>

					<ellipse transform="matrix(0.2548 -0.967 0.967 0.2548 -245.7238 699.2757)" style="fill:#ffffff;" fill-opacity="0.1" cx="330.8" cy="509.1" rx="3.2" ry="3.2"/>
			</g>
			<g>

					<ellipse transform="matrix(0.2548 -0.967 0.967 0.2548 -258.7221 760.9801)" style="fill:#ffffff;" fill-opacity="0.1" cx="364.4" cy="548.4" rx="3.2" ry="3.2"/>
			</g>
			<g>

					<ellipse transform="matrix(0.2548 -0.967 0.967 0.2548 -349.7783 543.1855)" style="fill:#ffffff;" fill-opacity="0.1" cx="177.5" cy="498.5" rx="3.2" ry="3.2"/>
			</g>
			<g>

					<ellipse transform="matrix(0.2545 -0.9671 0.9671 0.2545 -219.33 480.5464)" style="fill:#ffffff;" fill-opacity="0.1" cx="202" cy="382.5" rx="2.1" ry="2.1"/>
			</g>
			<g>
				<circle style="fill:#ffffff;" fill-opacity="0.1" cx="518.4" cy="518.1" r="4.3"/>
			</g>
			<g>
				<circle style="fill:#ffffff;" fill-opacity="0.1" cx="425.5" cy="562.8" r="5.4"/>
			</g>
			<g>
				<circle style="fill:#ffffff;" fill-opacity="0.1" cx="554.9" cy="428.1" r="4.3"/>
			</g>
			<g>
				<circle style="fill:#ffffff;" fill-opacity="0.1" cx="472.4" cy="387.5" r="2.9"/>
			</g>
			<g>

					<ellipse transform="matrix(0.2542 -0.9672 0.9672 0.2542 -128.2765 733.9601)" style="fill:#ffffff;" fill-opacity="0.1" cx="411.8" cy="450.2" rx="1.3" ry="1.3"/>
			</g>
			<g>

					<ellipse transform="matrix(0.2547 -0.967 0.967 0.2547 -125.051 971.8601)" style="fill:#ffffff;" fill-opacity="0.1" cx="567.9" cy="567.1" rx="1.3" ry="1.3"/>
			</g>
			<g>

					<ellipse transform="matrix(0.2545 -0.9671 0.9671 0.2545 -106.7947 797.0739)" style="fill:#ffffff;" fill-opacity="0.1" cx="463.6" cy="467.8" rx="2.1" ry="2.1"/>
			</g>
			<g>
				<circle style="fill:#ffffff;" fill-opacity="0.1" cx="163.3" cy="170.3" r="2.6"/>
			</g>
			<g>
				<circle style="fill:#ffffff;" fill-opacity="0.1" cx="100.7" cy="338" r="5.4"/>
			</g>
			<g>

					<ellipse transform="matrix(0.2546 -0.967 0.967 0.2546 -294.5909 326.0234)" style="fill:#ffffff;" fill-opacity="0.1" cx="64.2" cy="354.1" rx="3.2" ry="3.2"/>
			</g>
			<g>

					<ellipse transform="matrix(0.2546 -0.9671 0.9671 0.2546 9.7097 385.4431)" style="fill:#ffffff;" fill-opacity="0.1" cx="254.9" cy="186.4" rx="3.2" ry="3.2"/>
			</g>
			<g>

					<ellipse transform="matrix(0.2546 -0.967 0.967 0.2546 -232.8757 339.0168)" style="fill:#ffffff;" fill-opacity="0.1" cx="103.5" cy="320.6" rx="3.2" ry="3.2"/>
			</g>
			<g>
				<circle style="fill:#ffffff;" fill-opacity="0.1" cx="73.3" cy="166.5" r="4.3"/>
			</g>
			<g>
				<circle style="fill:#ffffff;" fill-opacity="0.1" cx="118" cy="259.5" r="5.4"/>
			</g>
			<g>

					<ellipse transform="matrix(0.2545 -0.9671 0.9671 0.2545 -240.0271 252.2565)" style="fill:#ffffff;" fill-opacity="0.1" cx="43.6" cy="281.8" rx="1.3" ry="1.3"/>
			</g>
			<g>

					<ellipse transform="matrix(0.2544 -0.9671 0.9671 0.2544 -176.7351 230.7084)" style="fill:#ffffff;" fill-opacity="0.1" cx="61.3" cy="230" rx="2.1" ry="2.1"/>
			</g>
			<g>
				<circle style="fill:#ffffff;" fill-opacity="0.1" cx="408.2" cy="392.6" r="2.6"/>
			</g>
			<g>
				<circle style="fill:#ffffff;" fill-opacity="0.1" cx="221.4" cy="498" r="4.3"/>
			</g>
			<g>
				<circle style="fill:#ffffff;" fill-opacity="0.1" cx="346.9" cy="545.6" r="5.4"/>
			</g>
			<g>
				<circle style="fill:#ffffff;" fill-opacity="0.1" cx="71.9" cy="443.1" r="5.4"/>
			</g>
			<g>
				<circle style="fill:#ffffff;" fill-opacity="0.1" cx="202.2" cy="534.1" r="5.4"/>
			</g>
			<g>
				<circle style="fill:#ffffff;" fill-opacity="0.1" cx="167.6" cy="574" r="5.4"/>
			</g>
			<g>
				<circle style="fill:#ffffff;" fill-opacity="0.1" cx="231" cy="548.5" r="5.4"/>
			</g>
			<g>
				<circle style="fill:#ffffff;" fill-opacity="0.1" cx="161" cy="532.2" r="5.4"/>
			</g>
			<g>
				<circle style="fill:#ffffff;" fill-opacity="0.1" cx="77.7" cy="410.5" r="5.4"/>
			</g>
			<g>
				<circle style="fill:#ffffff;" fill-opacity="0.1" cx="43.2" cy="417.2" r="5.4"/>
			</g>
			<g>
				<circle style="fill:#ffffff;" fill-opacity="0.1" cx="52.8" cy="565.7" r="5.4"/>
			</g>
			<g>
				<circle style="fill:#ffffff;" fill-opacity="0.1" cx="121.7" cy="371.5" r="4.3"/>
			</g>
			<g>
				<circle style="fill:#ffffff;" fill-opacity="0.1" cx="177.3" cy="332.9" r="2.9"/>
			</g>
			<g>

					<ellipse transform="matrix(0.2547 -0.967 0.967 0.2547 -456.7831 472.4449)" style="fill:#ffffff;" fill-opacity="0.1" cx="78.1" cy="532.6" rx="5.4" ry="5.4"/>
			</g>
			<g>

					<ellipse transform="matrix(0.2546 -0.967 0.967 0.2546 -315.347 620.5791)" style="fill:#ffffff;" fill-opacity="0.1" cx="244.9" cy="514.9" rx="0.6" ry="0.6"/>
			</g>
			<g>

					<ellipse transform="matrix(0.2545 -0.9671 0.9671 0.2545 -411.7166 404.8568)" style="fill:#ffffff;" fill-opacity="0.1" cx="56.7" cy="469.5" rx="1.7" ry="1.7"/>
			</g>
			<g>

					<ellipse transform="matrix(0.2542 -0.9672 0.9672 0.2542 -254.7719 447.2702)" style="fill:#ffffff;" fill-opacity="0.1" cx="162.6" cy="388.8" rx="1.3" ry="1.3"/>
			</g>
			<g>

					<ellipse transform="matrix(0.2548 -0.967 0.967 0.2548 -357.8889 669.6864)" style="fill:#ffffff;" fill-opacity="0.1" cx="255.6" cy="567.1" rx="1.3" ry="1.3"/>
			</g>
			<g>

					<ellipse transform="matrix(0.2542 -0.9672 0.9672 0.2542 -392.2267 600.5547)" style="fill:#ffffff;" fill-opacity="0.1" cx="193.3" cy="554.6" rx="1.3" ry="1.3"/>
			</g>
			<g>

					<ellipse transform="matrix(0.2542 -0.9672 0.9672 0.2542 -139.4018 619.8807)" style="fill:#ffffff;" fill-opacity="0.1" cx="332.2" cy="400.3" rx="1.3" ry="1.3"/>
			</g>
			<g>

					<ellipse transform="matrix(0.2545 -0.9671 0.9671 0.2545 -342.2342 414.6837)" style="fill:#ffffff;" fill-opacity="0.1" cx="97.9" cy="429.3" rx="3.2" ry="3.2"/>
			</g>
			<g>

					<ellipse transform="matrix(0.2548 -0.967 0.967 0.2548 -371.7783 506.9835)" style="fill:#ffffff;" fill-opacity="0.1" cx="143" cy="494.7" rx="3.2" ry="3.2"/>
			</g>
			<g>

					<ellipse transform="matrix(0.2548 -0.967 0.967 0.2548 -245.7238 699.2757)" style="fill:#ffffff;" fill-opacity="0.1" cx="330.8" cy="509.1" rx="3.2" ry="3.2"/>
			</g>
			<g>

					<ellipse transform="matrix(0.2548 -0.967 0.967 0.2548 -258.7221 760.9801)" style="fill:#ffffff;" fill-opacity="0.1" cx="364.4" cy="548.4" rx="3.2" ry="3.2"/>
			</g>
			<g>

					<ellipse transform="matrix(0.2548 -0.967 0.967 0.2548 -349.7783 543.1855)" style="fill:#ffffff;" fill-opacity="0.1" cx="177.5" cy="498.5" rx="3.2" ry="3.2"/>
			</g>
			<g>

					<ellipse transform="matrix(0.2545 -0.9671 0.9671 0.2545 -219.33 480.5464)" style="fill:#ffffff;" fill-opacity="0.1" cx="202" cy="382.5" rx="2.1" ry="2.1"/>
			</g>
			<g>

					<ellipse transform="matrix(0.8203 -0.572 0.572 0.8203 -172.5283 190.6989)" style="fill:#ffffff;" fill-opacity="0.1" cx="217.2" cy="369.9" rx="4.3" ry="4.3"/>
			</g>
			<g>

					<ellipse transform="matrix(0.8203 -0.572 0.572 0.8203 -168.8823 261.3407)" style="fill:#ffffff;" fill-opacity="0.1" cx="331.4" cy="399.4" rx="4.3" ry="4.3"/>
			</g>
			<g>

					<ellipse transform="matrix(0.8203 -0.5719 0.5719 0.8203 -194.1886 162.5235)" style="fill:#ffffff;" fill-opacity="0.1" cx="161.5" cy="390.3" rx="2.9" ry="2.9"/>
			</g>
			<g>

					<ellipse transform="matrix(0.9388 -0.3444 0.3444 0.9388 -114.3277 96.9784)" style="fill:#ffffff;" fill-opacity="0.1" cx="215.8" cy="370.3" rx="1.3" ry="1.3"/>
			</g>
			<g>

					<ellipse transform="matrix(0.9389 -0.3441 0.3441 0.9389 -65.4509 78.9226)" style="fill:#ffffff;" fill-opacity="0.1" cx="189.7" cy="223.9" rx="1.3" ry="1.3"/>
			</g>
			<g>

					<ellipse transform="matrix(0.9389 -0.3441 0.3441 0.9389 -117.5011 139.0579)" style="fill:#ffffff;" fill-opacity="0.1" cx="333" cy="400.6" rx="3.2" ry="3.2"/>
			</g>
			<g>

					<ellipse transform="matrix(0.9389 -0.3442 0.3442 0.9389 -77.1543 101.3858)" style="fill:#ffffff;" fill-opacity="0.1" cx="247" cy="268" rx="3.2" ry="3.2"/>
			</g>
			<g>

					<ellipse transform="matrix(0.9389 -0.3443 0.3443 0.9389 -83.5086 120.4009)" style="fill:#ffffff;" fill-opacity="0.1" cx="297.3" cy="295.4" rx="3.2" ry="3.2"/>
			</g>
			<g>

					<ellipse transform="matrix(0.9389 -0.3442 0.3442 0.9389 -91.1623 148.6382)" style="fill:#ffffff;" fill-opacity="0.1" cx="373.1" cy="331.1" rx="2.1" ry="2.1"/>
			</g>
			<g>

					<ellipse transform="matrix(0.8203 -0.572 0.572 0.8203 -172.5283 190.6989)" style="fill:#ffffff;" fill-opacity="0.1" cx="217.2" cy="369.9" rx="4.3" ry="4.3"/>
			</g>
			<g>

					<ellipse transform="matrix(0.8203 -0.572 0.572 0.8203 -168.8823 261.3407)" style="fill:#ffffff;" fill-opacity="0.1" cx="331.4" cy="399.4" rx="4.3" ry="4.3"/>
			</g>
			<g>

					<ellipse transform="matrix(0.8203 -0.5719 0.5719 0.8203 -194.1886 162.5235)" style="fill:#ffffff;" fill-opacity="0.1" cx="161.5" cy="390.3" rx="2.9" ry="2.9"/>
			</g>
			<g>

					<ellipse transform="matrix(0.9388 -0.3444 0.3444 0.9388 -114.3277 96.9784)" style="fill:#ffffff;" fill-opacity="0.1" cx="215.8" cy="370.3" rx="1.3" ry="1.3"/>
			</g>
			<g>

					<ellipse transform="matrix(0.9389 -0.3441 0.3441 0.9389 -65.4509 78.9226)" style="fill:#ffffff;" fill-opacity="0.1" cx="189.7" cy="223.9" rx="1.3" ry="1.3"/>
			</g>
			<g>

					<ellipse transform="matrix(0.9389 -0.3441 0.3441 0.9389 -117.5011 139.0579)" style="fill:#ffffff;" fill-opacity="0.1" cx="333" cy="400.6" rx="3.2" ry="3.2"/>
			</g>
			<g>

					<ellipse transform="matrix(0.2542 -0.9672 0.9672 0.2542 -236.3209 601.5123)" style="fill:#ffffff;" fill-opacity="0.1" cx="271.9" cy="454" rx="1.3" ry="1.3"/>
			</g>
			<g>

					<ellipse transform="matrix(0.2542 -0.9672 0.9672 0.2542 -236.3209 601.5123)" style="fill:#ffffff;" fill-opacity="0.1" cx="271.9" cy="454" rx="1.3" ry="1.3"/>
			</g>
			<g>

					<ellipse transform="matrix(0.8203 -0.572 0.572 0.8203 -210.4268 236.4572)" style="fill:#ffffff;" fill-opacity="0.1" cx="271" cy="453" rx="4.3" ry="4.3"/>
			</g>
			<g>

					<ellipse transform="matrix(0.9389 -0.3442 0.3442 0.9389 -139.6814 121.6014)" style="fill:#ffffff;" fill-opacity="0.1" cx="272.7" cy="454.2" rx="3.2" ry="3.2"/>
			</g>
			<g>

					<ellipse transform="matrix(0.8203 -0.572 0.572 0.8203 -210.4268 236.4572)" style="fill:#ffffff;" fill-opacity="0.1" cx="271" cy="453" rx="4.3" ry="4.3"/>
			</g>
			<g>

					<ellipse transform="matrix(0.9389 -0.3442 0.3442 0.9389 -139.6814 121.6014)" style="fill:#ffffff;" fill-opacity="0.1" cx="272.7" cy="454.2" rx="3.2" ry="3.2"/>
			</g>
			<g>

					<ellipse transform="matrix(0.9389 -0.3442 0.3442 0.9389 -77.1543 101.3858)" style="fill:#ffffff;" fill-opacity="0.1" cx="247" cy="268" rx="3.2" ry="3.2"/>
			</g>
			<g>

					<ellipse transform="matrix(0.9389 -0.3443 0.3443 0.9389 -83.5086 120.4009)" style="fill:#ffffff;" fill-opacity="0.1" cx="297.3" cy="295.4" rx="3.2" ry="3.2"/>
			</g>
			<g>

					<ellipse transform="matrix(0.9389 -0.3442 0.3442 0.9389 -91.1623 148.6382)" style="fill:#ffffff;" fill-opacity="0.1" cx="373.1" cy="331.1" rx="2.1" ry="2.1"/>
			</g>
			<g>

					<ellipse transform="matrix(0.9389 -0.3442 0.3442 0.9389 -79.2658 161.9135)" style="fill:#ffffff;" fill-opacity="0.1" cx="416.4" cy="304.2" rx="4.1" ry="4.1"/>
			</g>
			<g>
				<circle style="fill:#ffffff;" fill-opacity="0.1" cx="518.4" cy="518.1" r="4.3"/>
			</g>
			<g>
				<circle style="fill:#ffffff;" fill-opacity="0.1" cx="652.8" cy="537.2" r="4.3"/>
			</g>
			<g>
				<circle style="fill:#ffffff;" fill-opacity="0.1" cx="567" cy="566.7" r="4.3"/>
			</g>
			<g>
				<circle style="fill:#ffffff;" fill-opacity="0.1" cx="716.1" cy="492.1" r="4.3"/>
			</g>
			<g>
				<circle style="fill:#ffffff;" fill-opacity="0.1" cx="708.3" cy="565.8" r="4.3"/>
			</g>
			<g>
				<circle style="fill:#ffffff;" fill-opacity="0.1" cx="425.5" cy="562.8" r="5.4"/>
			</g>
			<g>
				<circle style="fill:#ffffff;" fill-opacity="0.1" cx="472.4" cy="387.5" r="2.9"/>
			</g>
			<g>

					<ellipse transform="matrix(0.2542 -0.9672 0.9672 0.2542 -128.2765 733.9601)" style="fill:#ffffff;" fill-opacity="0.1" cx="411.8" cy="450.2" rx="1.3" ry="1.3"/>
			</g>
			<g>

					<ellipse transform="matrix(0.2547 -0.967 0.967 0.2547 -125.051 971.8601)" style="fill:#ffffff;" fill-opacity="0.1" cx="567.9" cy="567.1" rx="1.3" ry="1.3"/>
			</g>
			<g>

					<ellipse transform="matrix(0.2545 -0.9671 0.9671 0.2545 -106.7947 797.0739)" style="fill:#ffffff;" fill-opacity="0.1" cx="463.6" cy="467.8" rx="2.1" ry="2.1"/>
			</g>
			<g>
				<circle style="fill:#ffffff;" fill-opacity="0.1" cx="163.3" cy="170.3" r="2.6"/>
			</g>
			<g>
				<circle style="fill:#ffffff;" fill-opacity="0.1" cx="100.7" cy="338" r="5.4"/>
			</g>
			<g>

					<ellipse transform="matrix(0.2546 -0.967 0.967 0.2546 -294.5909 326.0234)" style="fill:#ffffff;" fill-opacity="0.1" cx="64.2" cy="354.1" rx="3.2" ry="3.2"/>
			</g>
			<g>

					<ellipse transform="matrix(0.2546 -0.9671 0.9671 0.2546 9.7097 385.4431)" style="fill:#ffffff;" fill-opacity="0.1" cx="254.9" cy="186.4" rx="3.2" ry="3.2"/>
			</g>
			<g>

					<ellipse transform="matrix(0.2547 -0.967 0.967 0.2547 -74.088 349.5426)" style="fill:#ffffff;" fill-opacity="0.1" cx="189.7" cy="222.8" rx="3.2" ry="3.2"/>
			</g>
			<g>

					<ellipse transform="matrix(0.2547 -0.967 0.967 0.2547 -74.088 349.5426)" style="fill:#ffffff;" fill-opacity="0.1" cx="189.7" cy="222.8" rx="3.2" ry="3.2"/>
			</g>
			<g>

					<ellipse transform="matrix(0.2546 -0.967 0.967 0.2546 -232.8757 339.0168)" style="fill:#ffffff;" fill-opacity="0.1" cx="103.5" cy="320.6" rx="3.2" ry="3.2"/>
			</g>
			<g>
				<circle style="fill:#ffffff;" fill-opacity="0.1" cx="73.3" cy="166.5" r="4.3"/>
			</g>
			<g>
				<circle style="fill:#ffffff;" fill-opacity="0.1" cx="68.1" cy="72.9" r="4.3"/>
			</g>
			<g>
				<circle style="fill:#ffffff;" fill-opacity="0.1" cx="121.8" cy="117.1" r="4.3"/>
			</g>
			<g>
				<circle style="fill:#ffffff;" fill-opacity="0.1" cx="93.2" cy="33" r="2.4"/>
			</g>
			<g>
				<circle style="fill:#ffffff;" fill-opacity="0.1" cx="118" cy="259.5" r="5.4"/>
			</g>
			<g>

					<ellipse transform="matrix(0.2545 -0.9671 0.9671 0.2545 -240.0271 252.2565)" style="fill:#ffffff;" fill-opacity="0.1" cx="43.6" cy="281.8" rx="1.3" ry="1.3"/>
			</g>
			<g>

					<ellipse transform="matrix(0.2544 -0.9671 0.9671 0.2544 -176.7351 230.7084)" style="fill:#ffffff;" fill-opacity="0.1" cx="61.3" cy="230" rx="2.1" ry="2.1"/>
			</g>
		</g>
	</g>
</g>
</svg>
